<svg width="12" height="12" viewBox="0 0 12 12" fill="none" xmlns="http://www.w3.org/2000/svg">
<path d="M7.40864 6L11.7045 1.71415C11.8926 1.52602 11.9983 1.27088 11.9983 1.00483C11.9983 0.738787 11.8926 0.483639 11.7045 0.295517C11.5164 0.107395 11.2612 0.00170898 10.9952 0.00170898C10.7291 0.00170898 10.474 0.107395 10.2859 0.295517L6 4.59137L1.71414 0.295517C1.52602 0.107395 1.27087 0.00170898 1.00483 0.00170898C0.738783 0.00170899 0.483635 0.107395 0.295513 0.295517C0.107391 0.483639 0.00170495 0.738787 0.00170495 1.00483C0.00170495 1.27088 0.107391 1.52602 0.295513 1.71415L4.59136 6L0.295513 10.2859C0.201875 10.3787 0.127553 10.4892 0.0768329 10.611C0.0261132 10.7327 0 10.8633 0 10.9952C0 11.1271 0.0261132 11.2576 0.0768329 11.3794C0.127553 11.5011 0.201875 11.6116 0.295513 11.7045C0.388386 11.7981 0.49888 11.8725 0.620622 11.9232C0.742363 11.9739 0.872943 12 1.00483 12C1.13671 12 1.26729 11.9739 1.38903 11.9232C1.51077 11.8725 1.62127 11.7981 1.71414 11.7045L6 7.40864L10.2859 11.7045C10.3787 11.7981 10.4892 11.8725 10.611 11.9232C10.7327 11.9739 10.8633 12 10.9952 12C11.1271 12 11.2576 11.9739 11.3794 11.9232C11.5011 11.8725 11.6116 11.7981 11.7045 11.7045C11.7981 11.6116 11.8724 11.5011 11.9232 11.3794C11.9739 11.2576 12 11.1271 12 10.9952C12 10.8633 11.9739 10.7327 11.9232 10.611C11.8724 10.4892 11.7981 10.3787 11.7045 10.2859L7.40864 6Z" fill="#E8E7FD" fill-opacity="0.85"/>
</svg>
