<svg width="5" height="10" viewBox="0 0 5 10" fill="none" xmlns="http://www.w3.org/2000/svg">
<path d="M0.717291 9.86626L4.87686 5.34583C4.95565 5.26019 4.99992 5.14405 4.99992 5.02294L5 4.97706C5 4.85595 4.95573 4.73981 4.87693 4.65417L0.717368 0.133744C0.638569 0.0481092 0.531695 0 0.420257 0C0.308818 0 0.201943 0.0481092 0.123145 0.133744C0.0443459 0.219379 7.72476e-05 0.335526 7.72476e-05 0.456632C7.72476e-05 0.577738 0.0443459 0.693884 0.123145 0.77952L4.00662 5.00001L0.123068 9.22048C0.0442686 9.30612 0 9.42226 0 9.54337C0 9.66447 0.0442686 9.78062 0.123068 9.86626C0.201867 9.95189 0.308741 10 0.42018 10C0.531618 10 0.638492 9.95189 0.717291 9.86626Z" fill="#E8E7FD" fill-opacity="0.85"/>
</svg>
