<svg width="5" height="10" viewBox="0 0 5 10" fill="none" xmlns="http://www.w3.org/2000/svg">
<path d="M4.28271 9.86626L0.123145 5.34583C0.0443458 5.26019 7.68524e-05 5.14405 7.68524e-05 5.02294L0 4.97706C0 4.85595 0.0442689 4.73981 0.123068 4.65417L4.28263 0.133744C4.36143 0.0481092 4.46831 0 4.57974 0C4.69118 0 4.79806 0.0481092 4.87686 0.133744C4.95565 0.219379 4.99992 0.335526 4.99992 0.456632C4.99992 0.577738 4.95565 0.693884 4.87686 0.77952L0.993376 5.00001L4.87693 9.22048C4.95573 9.30612 5 9.42226 5 9.54337C5 9.66447 4.95573 9.78062 4.87693 9.86626C4.79813 9.95189 4.69126 10 4.57982 10C4.46838 10 4.36151 9.95189 4.28271 9.86626Z" fill="#E8E7FD" fill-opacity="0.85"/>
</svg>
