<svg width="12" height="12" viewBox="0 0 12 12" fill="none" xmlns="http://www.w3.org/2000/svg">
<path d="M5.99999 6.9001C6.49705 6.9001 6.89999 6.49715 6.89999 6.0001C6.89999 5.50304 6.49705 5.1001 5.99999 5.1001C5.50293 5.1001 5.09999 5.50304 5.09999 6.0001C5.09999 6.49715 5.50293 6.9001 5.99999 6.9001Z" fill="#E8E7FD" fill-opacity="0.85"/>
<path d="M10.992 4.422H10.338C10.254 4.422 10.194 4.356 10.158 4.266C10.1366 4.23295 10.1252 4.1944 10.1252 4.155C10.1252 4.11561 10.1366 4.07705 10.158 4.044L10.644 3.6C10.7392 3.50838 10.8149 3.39841 10.8665 3.27672C10.9181 3.15503 10.9444 3.02416 10.944 2.892C10.9439 2.75904 10.9173 2.62743 10.8658 2.50484C10.8143 2.38226 10.7389 2.27115 10.644 2.178L9.84 1.356C9.74687 1.26221 9.6361 1.18777 9.51407 1.13698C9.39205 1.08618 9.26118 1.06003 9.129 1.06003C8.99682 1.06003 8.86596 1.08618 8.74393 1.13698C8.6219 1.18777 8.51113 1.26221 8.418 1.356L7.956 1.8C7.91929 1.82352 7.8766 1.83602 7.833 1.83602C7.7894 1.83602 7.74671 1.82352 7.71 1.8C7.67377 1.78649 7.64212 1.76296 7.61875 1.73215C7.59538 1.70135 7.58125 1.66453 7.578 1.626V1.008C7.57812 0.745779 7.47604 0.493834 7.29345 0.305637C7.11085 0.117439 6.8621 0.00780416 6.6 1.55607e-10H5.436C5.16811 -4.68973e-06 4.9111 0.106003 4.72111 0.294869C4.53112 0.483735 4.42359 0.740112 4.422 1.008V1.662C4.422 1.746 4.356 1.806 4.266 1.842C4.23295 1.86344 4.1944 1.87484 4.155 1.87484C4.11561 1.87484 4.07705 1.86344 4.044 1.842L3.6 1.356C3.40997 1.1671 3.15392 1.05952 2.886 1.056C2.75394 1.05626 2.62327 1.08293 2.50168 1.13445C2.38009 1.18598 2.27004 1.2613 2.178 1.356L1.356 2.16C1.25947 2.25343 1.18271 2.36531 1.13029 2.489C1.07787 2.61269 1.05085 2.74566 1.05085 2.88C1.05085 3.01434 1.07787 3.14731 1.13029 3.271C1.18271 3.39469 1.25947 3.50657 1.356 3.6L1.8 4.044C1.82352 4.08071 1.83602 4.1234 1.83602 4.167C1.83602 4.2106 1.82352 4.25329 1.8 4.29C1.78649 4.32623 1.76296 4.35788 1.73215 4.38125C1.70135 4.40462 1.66453 4.41875 1.626 4.422H1.008C0.740662 4.422 0.484273 4.5282 0.295236 4.71724C0.1062 4.90627 1.55608e-10 5.16266 1.55607e-10 5.43V6.564C-4.68973e-06 6.83189 0.106003 7.0889 0.294869 7.27889C0.483735 7.46888 0.740112 7.57642 1.008 7.578H1.662C1.746 7.578 1.806 7.644 1.842 7.734C1.86344 7.76705 1.87484 7.80561 1.87484 7.845C1.87484 7.8844 1.86344 7.92295 1.842 7.956L1.356 8.4C1.1671 8.59003 1.05952 8.84608 1.056 9.114C1.05579 9.24702 1.08223 9.37872 1.13376 9.50135C1.18528 9.62398 1.26085 9.73505 1.356 9.828L2.16 10.644C2.25313 10.7378 2.3639 10.8122 2.48593 10.863C2.60795 10.9138 2.73882 10.94 2.871 10.94C3.00318 10.94 3.13405 10.9138 3.25607 10.863C3.3781 10.8122 3.48887 10.7378 3.582 10.644L4.044 10.2C4.08071 10.1765 4.1234 10.164 4.167 10.164C4.2106 10.164 4.25329 10.1765 4.29 10.2C4.32623 10.2135 4.35788 10.237 4.38125 10.2678C4.40462 10.2987 4.41875 10.3355 4.422 10.374V11.028C4.43133 11.289 4.54163 11.5363 4.72967 11.7176C4.9177 11.8989 5.16878 12.0002 5.43 12H6.564C6.83189 12 7.0889 11.894 7.27889 11.7051C7.46888 11.5163 7.57642 11.2599 7.578 10.992V10.338C7.578 10.254 7.644 10.194 7.734 10.158C7.76705 10.1366 7.80561 10.1252 7.845 10.1252C7.8844 10.1252 7.92295 10.1366 7.956 10.158L8.412 10.62C8.60203 10.8089 8.85808 10.9165 9.126 10.92C9.25806 10.9197 9.38873 10.8931 9.51032 10.8415C9.63191 10.79 9.74196 10.7147 9.834 10.62L10.638 9.816C10.7318 9.72287 10.8062 9.6121 10.857 9.49007C10.9078 9.36805 10.934 9.23718 10.934 9.105C10.934 8.97282 10.9078 8.84196 10.857 8.71993C10.8062 8.5979 10.7318 8.48713 10.638 8.394L10.2 7.956C10.1786 7.92295 10.1672 7.8844 10.1672 7.845C10.1672 7.80561 10.1786 7.76705 10.2 7.734C10.2135 7.69777 10.237 7.66612 10.2678 7.64275C10.2987 7.61938 10.3355 7.60525 10.374 7.602H11.028C11.288 7.59271 11.5344 7.48324 11.7155 7.29649C11.8967 7.10974 11.9986 6.86018 12 6.6V5.436C12 5.16811 11.894 4.9111 11.7051 4.72111C11.5163 4.53112 11.2599 4.42359 10.992 4.422V4.422ZM6 8.1C5.58466 8.1 5.17865 7.97684 4.8333 7.74609C4.48796 7.51534 4.2188 7.18736 4.05985 6.80364C3.90091 6.41991 3.85932 5.99767 3.94035 5.59031C4.02138 5.18295 4.22139 4.80877 4.51508 4.51508C4.80877 4.22139 5.18295 4.02138 5.59031 3.94035C5.99767 3.85932 6.41991 3.90091 6.80364 4.05985C7.18736 4.2188 7.51534 4.48796 7.74609 4.8333C7.97684 5.17865 8.1 5.58466 8.1 6C8.1 6.55695 7.87875 7.0911 7.48492 7.48492C7.0911 7.87875 6.55695 8.1 6 8.1V8.1Z" fill="#E8E7FD" fill-opacity="0.85"/>
</svg>
